<?xml version="1.0" encoding="UTF-8" standalone="no"?>
<svg
   height="16"
   viewBox="0 0 16 16"
   width="16"
   version="1.1"
   id="svg1"
   sodipodi:docname="icon.svg"
   xml:space="preserve"
   inkscape:version="1.3 (0e150ed6c4, 2023-07-21)"
   inkscape:export-filename="icon.png"
   inkscape:export-xdpi="4096"
   inkscape:export-ydpi="4096"
   xmlns:inkscape="http://www.inkscape.org/namespaces/inkscape"
   xmlns:sodipodi="http://sodipodi.sourceforge.net/DTD/sodipodi-0.dtd"
   xmlns="http://www.w3.org/2000/svg"
   xmlns:svg="http://www.w3.org/2000/svg"><defs
     id="defs1" /><sodipodi:namedview
     id="namedview1"
     pagecolor="#505050"
     bordercolor="#ffffff"
     borderopacity="1"
     inkscape:showpageshadow="0"
     inkscape:pageopacity="0"
     inkscape:pagecheckerboard="1"
     inkscape:deskcolor="#505050"
     inkscape:zoom="35.929863"
     inkscape:cx="4.9819282"
     inkscape:cy="4.6061962"
     inkscape:window-width="1920"
     inkscape:window-height="1009"
     inkscape:window-x="-32000"
     inkscape:window-y="-32000"
     inkscape:window-maximized="0"
     inkscape:current-layer="svg1" /><path
     d="m8 2a6 6 0 0 0 -6 6 6 6 0 0 0 6 6 6 6 0 0 0 6-6 6 6 0 0 0 -6-6zm0 2a4 4 0 0 1 4 4 4 4 0 0 1 -4 4 4 4 0 0 1 -4-4 4 4 0 0 1 4-4z"
     fill="#e0e0e0"
     id="path1" /><path
     d="M 7.4831955,6.0000089 A 1.4831955,1.4831955 0 0 0 6,7.4832044 1.4831955,1.4831955 0 0 0 7.4831955,8.9663998 1.4831955,1.4831955 0 0 0 8.30011,8.7195873 L 9.580523,10.000001 10,9.5805226 8.719587,8.3001099 A 1.4831955,1.4831955 0 0 0 8.9664,7.4831955 1.4831955,1.4831955 0 0 0 7.4832043,6 Z m 0,0.5932781 A 0.88991727,0.88991727 0 0 1 8.373113,7.4832044 0.88991727,0.88991727 0 0 1 7.4831955,8.3731216 0.88991727,0.88991727 0 0 1 6.5932782,7.4832044 0.88991727,0.88991727 0 0 1 7.4831955,6.593287 Z"
     fill="#e0e0e0"
     id="path1-7"
     style="stroke-width:0.29664" /></svg>
